Coordinates
version=1
nRows=13
nColumns=38
inDegrees=no

Units are S.I. units (second, meters, Newtons, ...)
If the header above contains a line with 'inDegrees', this indicates whether rotational values are in degrees (yes) or radians (no).

endheader
time	pelvis_tilt	pelvis_list	pelvis_rotation	pelvis_tx	pelvis_ty	pelvis_tz	hip_flexion_r	hip_adduction_r	hip_rotation_r	knee_angle_r	ankle_angle_r	subtalar_angle_r	mtp_angle_r	hip_flexion_l	hip_adduction_l	hip_rotation_l	knee_angle_l	ankle_angle_l	subtalar_angle_l	mtp_angle_l	lumbar_extension	lumbar_bending	lumbar_rotation	arm_flex_r	arm_add_r	arm_rot_r	elbow_flex_r	pro_sup_r	wrist_flex_r	wrist_dev_r	arm_flex_l	arm_add_l	arm_rot_l	elbow_flex_l	pro_sup_l	wrist_flex_l	wrist_dev_l
2.03	-0.33727	1.30829	-1.05083	0.809977	-0.18876	0.941035	-0.00804168	0.0852775	-0.234943	0.127209	-0.388742	0	0	-0.466248	-0.251654	-0.260324	0.664481	-0.324469	0	0	-0.388905	0.116612	-0.31325	-0.0503119	-0.473355	0.687334	0.757186	0.686867	0	0	-0.242382	-0.365576	-0.201025	1.13675	1.5708	0	0
2.04	-0.354176	1.30566	-1.03462	0.808604	-0.20034	0.941887	-0.0127993	0.0927041	-0.245694	0.145446	-0.371595	0	0	-0.440378	-0.264454	-0.249268	0.728312	-0.340699	0	0	-0.388398	0.123179	-0.312444	-0.0536145	-0.472139	0.683788	0.760204	0.687834	0	0	-0.250082	-0.359964	-0.201339	1.13169	1.5708	0	0
2.05	-0.368501	1.30417	-1.02109	0.807231	-0.211803	0.94245	-0.013511	0.0959393	-0.268104	0.174415	-0.348645	0	0	-0.411515	-0.275916	-0.237987	0.795525	-0.346306	0	0	-0.386977	0.128242	-0.31161	-0.0583684	-0.47083	0.677819	0.764315	0.690056	0	0	-0.258214	-0.35517	-0.200935	1.12756	1.5708	0	0
2.06	-0.379737	1.30174	-1.01037	0.805923	-0.223063	0.943078	-0.0248026	0.102759	-0.27631	0.180849	-0.334728	0	0	-0.382856	-0.287252	-0.227985	0.863404	-0.343566	0	0	-0.386938	0.132824	-0.310566	-0.0629978	-0.469413	0.67174	0.768234	0.692951	0	0	-0.266062	-0.351655	-0.19887	1.12379	1.5708	0	0
2.07	-0.388509	1.29989	-1.00254	0.804619	-0.234178	0.943724	-0.0375401	0.109354	-0.280661	0.182869	-0.322324	0	0	-0.3534	-0.297356	-0.219512	0.930601	-0.338025	0	0	-0.386506	0.136026	-0.308768	-0.0677999	-0.467611	0.665171	0.771368	0.697183	0	0	-0.272876	-0.348713	-0.19539	1.11921	1.5708	0	0
2.08	-0.390778	1.29701	-1.00215	0.803263	-0.245006	0.944635	-0.0515338	0.114993	-0.282546	0.183368	-0.323315	0	0	-0.32583	-0.305541	-0.212925	0.993875	-0.339733	0	0	-0.389065	0.13719	-0.307315	-0.0693173	-0.465177	0.662717	0.772638	0.701197	0	0	-0.280846	-0.345449	-0.194783	1.11674	1.5708	0	0
2.09	-0.388222	1.29553	-1.00727	0.801789	-0.255621	0.945652	-0.0635942	0.118212	-0.284627	0.187752	-0.311656	0	0	-0.297481	-0.310546	-0.206197	1.05348	-0.334844	0	0	-0.390528	0.136	-0.304019	-0.0698807	-0.464164	0.666345	0.773441	0.694535	0	0	-0.285955	-0.344212	-0.190402	1.11186	1.5708	0	0
2.1	-0.407259	1.28654	-0.994528	0.800677	-0.267393	0.945632	-0.0910789	0.133965	-0.282249	0.172216	-0.298538	0	0	-0.273902	-0.382569	-0.325359	1.13409	-0.358241	0	0	-0.393629	0.144062	-0.296222	-0.0779266	-0.475537	0.667549	0.792895	0.683298	0	0	-0.297962	-0.338609	-0.190112	1.11604	1.5708	0	0
2.11	-0.393885	1.28588	-1.00974	0.799228	-0.277719	0.947078	-0.111862	0.136375	-0.281021	0.160987	-0.292774	0	0	-0.247949	-0.382629	-0.316381	1.17867	-0.330297	0	0	-0.396236	0.139208	-0.293462	-0.0773711	-0.472514	0.67157	0.790704	0.674339	0	0	-0.301629	-0.338096	-0.186348	1.11057	1.5708	0	0
2.12	-0.35927	1.29722	-1.0407	0.797667	-0.286815	0.949478	-0.119788	0.126438	-0.284076	0.155436	-0.288503	0	0	-0.211091	-0.311432	-0.186861	1.19809	-0.241761	0	0	-0.395847	0.122392	-0.287222	-0.113426	-0.414568	0.523639	0.760674	0.834433	0	0	-0.290609	-0.346058	-0.167761	1.09584	1.5708	0	0
2.13	-0.365129	1.28906	-1.04195	0.796576	-0.297865	0.950045	-0.144739	0.135974	-0.281612	0.145317	-0.282917	0	0	-0.188532	-0.371352	-0.299387	1.26129	-0.186479	0	0	-0.398695	0.125859	-0.289014	-0.078177	-0.457419	0.661767	0.777158	0.681345	0	0	-0.308333	-0.33806	-0.178898	1.09932	1.5708	0	0
2.14	-0.357033	1.2907	-1.05368	0.79497	-0.307955	0.95128	-0.160339	0.137355	-0.278526	0.138	-0.278702	0	0	-0.162323	-0.368968	-0.285722	1.28385	-0.207292	0	0	-0.398823	0.119705	-0.285675	-0.0782599	-0.45064	0.658275	0.771292	0.685712	0	0	-0.313557	-0.337324	-0.178624	1.09631	1.5708	0	0
2.15	-0.322665	1.3006	-1.08655	0.793638	-0.316713	0.953281	-0.169437	0.127731	-0.275748	0.131896	-0.275497	0	0	-0.126716	-0.300254	-0.175762	1.29129	-0.158193	0	0	-0.396486	0.104424	-0.287578	-0.0723994	-0.434036	0.655187	0.749671	0.692714	0	0	-0.311125	-0.340092	-0.174078	1.08456	1.5708	0	0
